<svg width="100%" viewBox="0 0 392 268" fill="none" xmlns="http://www.w3.org/2000/svg">
<rect x="5" y="5" width="382" height="258" rx="13" fill="white" stroke="black" stroke-width="10"/>
<path d="M104.078 115.742C104.198 116.91 105.244 117.769 106.4 117.56C109.96 116.915 113.366 115.573 116.417 113.602C120.066 111.247 123.104 108.061 125.284 104.305C127.464 100.549 128.724 96.33 128.959 91.9937C129.195 87.6574 128.401 83.3269 126.641 79.3567C124.881 75.3865 122.206 71.8895 118.835 69.152C115.464 66.4145 111.492 64.5143 107.246 63.6069C102.999 62.6996 98.5974 62.8109 94.4019 63.9318C90.8927 64.8694 87.6109 66.4909 84.742 68.6959C83.8107 69.4117 83.7443 70.7637 84.5299 71.637V71.637C85.3155 72.5102 86.6549 72.5724 87.5963 71.8699C89.9584 70.107 92.6397 68.8054 95.4998 68.0413C99.0464 67.0938 102.767 66.9996 106.357 67.7666C109.947 68.5336 113.304 70.1399 116.154 72.454C119.004 74.7681 121.265 77.7242 122.752 81.0803C124.24 84.4364 124.911 88.0971 124.712 91.7626C124.513 95.4282 123.448 98.9945 121.605 102.169C119.762 105.344 117.194 108.038 114.11 110.029C111.623 111.635 108.858 112.747 105.965 113.314C104.813 113.539 103.959 114.573 104.078 115.742V115.742Z" fill="black"/>
<path d="M66.0398 107.24C64.3982 108.015 63.6847 109.982 64.5842 111.559C68.104 117.729 73.1242 122.935 79.2012 126.68C86.2133 131.002 94.3301 133.193 102.564 132.987C110.799 132.78 118.796 130.186 125.583 125.518C132.37 120.851 137.654 114.312 140.793 106.696C143.932 99.0809 144.79 90.7175 143.264 82.6232C141.737 74.529 137.891 67.0528 132.194 61.104C126.497 55.1552 119.194 50.9901 111.173 49.1154C104.222 47.4907 96.9914 47.6469 90.146 49.5447C88.3967 50.0296 87.5172 51.9278 88.1358 53.6345V53.6345C88.7545 55.3411 90.6371 56.2073 92.393 55.7471C98.0336 54.269 103.967 54.182 109.677 55.5166C116.457 57.1013 122.63 60.6222 127.446 65.6508C132.262 70.6795 135.513 76.9993 136.804 83.8416C138.094 90.6838 137.369 97.7536 134.715 104.191C132.062 110.629 127.595 116.156 121.858 120.102C116.121 124.047 109.361 126.241 102.4 126.415C95.4391 126.589 88.5778 124.737 82.6503 121.084C77.6583 118.007 73.5098 113.765 70.5492 108.741C69.6275 107.177 67.6813 106.465 66.0398 107.24V107.24Z" fill="#18005E"/>
<path d="M49.499 80.9277C47.5299 80.5652 45.6275 81.8672 45.392 83.8555C44.2514 93.4867 45.6074 103.272 49.3582 112.26C53.5754 122.365 60.6384 131.028 69.688 137.193C78.7376 143.359 89.3838 146.762 100.332 146.988C111.28 147.214 122.058 144.254 131.354 138.468C140.651 132.682 148.066 124.319 152.698 114.397C157.329 104.474 158.977 93.4195 157.442 82.5774C155.906 71.7353 151.253 61.5731 144.049 53.3267C137.641 45.9924 129.461 40.4547 120.316 37.225C118.428 36.5583 116.419 37.6901 115.875 39.6169V39.6169C115.331 41.5437 116.457 43.5342 118.339 44.2188C126.134 47.0547 133.106 51.8213 138.588 58.0971C144.868 65.2853 148.924 74.1434 150.263 83.5941C151.601 93.0449 150.165 102.681 146.127 111.33C142.09 119.979 135.627 127.269 127.523 132.313C119.419 137.356 110.025 139.936 100.482 139.739C90.9387 139.541 81.6587 136.575 73.7704 131.201C65.8822 125.827 59.7256 118.276 56.0495 109.467C52.8401 101.776 51.6422 93.4162 52.5398 85.1704C52.7565 83.18 51.4681 81.2902 49.499 80.9277V80.9277Z" fill="#A90000"/>
<circle cx="50" cy="76" r="8" fill="white" stroke="#A90000" stroke-width="4"/>
<path d="M285 42H317M285 54.5H336.5" stroke="black" stroke-width="5" stroke-linecap="round"/>
<path d="M237 236V188.155M252 236L252 159" stroke="black" stroke-width="5" stroke-linecap="round"/>
<path d="M279 234V186.155M294 234V157" stroke="#18005D" stroke-width="5" stroke-linecap="round"/>
<path d="M321 235V187.155M337 235V158" stroke="#A90000" stroke-width="5" stroke-linecap="round"/>
<circle cx="51.5" cy="224.5" r="11.5" fill="#18005D"/>
<circle cx="78.5" cy="226.5" r="9.5" fill="#A90000"/>
<circle cx="101.5" cy="228.5" r="7.5" fill="black"/>
</svg>
