<svg width="118" height="113" viewBox="0 0 118 113" fill="none" xmlns="http://www.w3.org/2000/svg">
<path d="M64.0785 81.7419C64.1978 82.9104 65.2442 83.7692 66.4 83.5599C69.9604 82.9152 73.3659 81.5728 76.4174 79.6024C80.0656 77.2467 83.1041 74.0605 85.2841 70.3046C87.464 66.5488 88.7235 62.33 88.9594 57.9937C89.1953 53.6574 88.4008 49.3269 86.6411 45.3567C84.8814 41.3865 82.2065 37.8895 78.8353 35.152C75.4641 32.4145 71.4925 30.5143 67.2456 29.6069C62.9988 28.6996 58.5974 28.8109 54.4019 29.9318C50.8927 30.8694 47.6109 32.4909 44.742 34.6959C43.8107 35.4117 43.7443 36.7637 44.5299 37.637V37.637C45.3155 38.5102 46.6549 38.5724 47.5963 37.8699C49.9584 36.107 52.6397 34.8054 55.4998 34.0413C59.0464 33.0938 62.767 32.9996 66.3569 33.7666C69.9469 34.5336 73.3042 36.1399 76.1539 38.454C79.0037 40.7681 81.2649 43.7242 82.7524 47.0803C84.2399 50.4364 84.9115 54.0971 84.7121 57.7626C84.5127 61.4282 83.448 64.9945 81.6052 68.1694C79.7625 71.3443 77.1939 74.0377 74.11 76.029C71.623 77.6349 68.8579 78.7474 65.9653 79.3135C64.8126 79.5391 63.9591 80.5733 64.0785 81.7419V81.7419Z" fill="black"/>
<path d="M26.0398 73.2404C24.3982 74.0154 23.6847 75.9821 24.5842 77.5589C28.104 83.729 33.1242 88.9349 39.2012 92.6803C46.2133 97.002 54.3301 99.193 62.5645 98.9867C70.7988 98.7804 78.7958 96.1857 85.5827 91.5182C92.3696 86.8507 97.6539 80.3116 100.793 72.6963C103.932 65.0809 104.79 56.7175 103.264 48.6232C101.737 40.529 97.8913 33.0528 92.1941 27.104C86.4968 21.1552 79.1936 16.9901 71.1729 15.1154C64.2218 13.4907 56.9914 13.6469 50.146 15.5447C48.3967 16.0296 47.5172 17.9278 48.1358 19.6345V19.6345C48.7545 21.3411 50.6371 22.2073 52.393 21.7471C58.0336 20.269 63.9667 20.182 69.6767 21.5166C76.4569 23.1013 82.6304 26.6222 87.4464 31.6508C92.2624 36.6795 95.5134 42.9993 96.8039 49.8416C98.0943 56.6838 97.3687 63.7536 94.7152 70.1911C92.0617 76.6285 87.5948 82.1562 81.8577 86.1017C76.1206 90.0472 69.3605 92.2406 62.3998 92.415C55.4391 92.5894 48.5778 90.7373 42.6503 87.084C37.6583 84.0074 33.5098 79.7648 30.5492 74.7413C29.6275 73.1774 27.6813 72.4655 26.0398 73.2404V73.2404Z" fill="#18005E"/>
<path d="M9.49901 46.9277C7.52989 46.5652 5.62751 47.8672 5.39203 49.8555C4.25141 59.4867 5.6074 69.2718 9.3582 78.2597C13.5754 88.3653 20.6384 97.0276 29.688 103.193C38.7376 109.359 49.3838 112.762 60.3318 112.988C71.2797 113.214 82.0575 110.254 91.3543 104.468C100.651 98.6824 108.066 90.3194 112.698 80.3968C117.329 70.4742 118.977 59.4195 117.442 48.5774C115.906 37.7353 111.253 27.5731 104.049 19.3267C97.641 11.9924 89.4606 6.45474 80.3157 3.22502C78.4277 2.55826 76.4194 3.69012 75.8751 5.61691V5.61691C75.3308 7.5437 76.4574 9.53419 78.3389 10.2188C86.1335 13.0547 93.1055 17.8213 98.5885 24.0971C104.868 31.2853 108.924 40.1434 110.263 49.5941C111.601 59.0449 110.165 68.6809 106.127 77.3301C102.09 85.9794 95.6268 93.2691 87.5231 98.3126C79.4194 103.356 70.0247 105.936 60.4817 105.739C50.9387 105.541 41.6587 102.575 33.7704 97.201C25.8822 91.8267 19.7256 84.276 16.0495 75.4672C12.8401 67.7765 11.6422 59.4162 12.5398 51.1704C12.7565 49.18 11.4681 47.2902 9.49901 46.9277V46.9277Z" fill="#A90000"/>
<circle cx="10" cy="42" r="8" fill="white" stroke="#A90000" strokeWidth="4"/>
</svg>
