<svg width="100%" viewBox="0 0 392 268" fill="none" xmlns="http://www.w3.org/2000/svg">
<rect x="5" y="5" width="382" height="258" rx="13" fill="white" stroke="black" strokeWidth="10"/>
<path d="M40 43H72M40 55.5H91.5" stroke="black" strokeWidth="5" stroke-linecap="round"/>
<circle cx="339.5" cy="43.5" r="7.5" fill="#18005D"/>
<rect x="83" y="96" width="86" height="21" rx="3" fill="#A90000"/>
<rect x="236" y="96" width="86" height="21" rx="3" fill="#18005D"/>
<rect x="83" y="128" width="86" height="21" rx="3" fill="#18005D"/>
<rect x="236" y="128" width="86" height="21" rx="3" fill="black"/>
<rect x="83" y="160" width="86" height="21" rx="3" fill="black"/>
<rect x="236" y="160" width="86" height="21" rx="3" fill="#18005D"/>
<rect x="83" y="192" width="86" height="21" rx="3" fill="#A90000"/>
<rect x="236" y="192" width="86" height="21" rx="3" fill="#A90000"/>
<rect x="52" y="96" width="23" height="21" rx="3" fill="#18005D"/>
<rect x="206" y="96" width="23" height="21" rx="3" fill="#18005D"/>
<rect x="206" y="128" width="23" height="21" rx="3" fill="#18005D"/>
<rect x="206" y="160" width="23" height="21" rx="3" fill="#18005D"/>
<rect x="206" y="192" width="23" height="21" rx="3" fill="#18005D"/>
<rect x="52" y="128" width="23" height="21" rx="3" fill="#18005D"/>
<rect x="52" y="160" width="23" height="21" rx="3" fill="#18005D"/>
<rect x="52" y="192" width="23" height="21" rx="3" fill="#18005D"/>
<path d="M73.5 103.5L58.4292 113.223C58.1937 113.375 57.8792 113.304 57.7323 113.065L54.3636 107.591C54.3031 107.492 54.4298 107.387 54.5156 107.464L58.7355 111.262C58.8938 111.404 59.125 111.431 59.3115 111.328L73.5 103.5Z" fill="white"/>
<path d="M227.5 103.5L212.429 113.223C212.194 113.375 211.879 113.304 211.732 113.065L208.364 107.591C208.303 107.492 208.43 107.387 208.516 107.464L212.736 111.262C212.894 111.404 213.125 111.431 213.312 111.328L227.5 103.5Z" fill="white"/>
<path d="M227.5 167.5L212.429 177.223C212.194 177.375 211.879 177.304 211.732 177.065L208.364 171.591C208.303 171.492 208.43 171.387 208.516 171.464L212.736 175.262C212.894 175.404 213.125 175.431 213.312 175.328L227.5 167.5Z" fill="white"/>
<path d="M227.5 199.5L212.429 209.223C212.194 209.375 211.879 209.304 211.732 209.065L208.364 203.591C208.303 203.492 208.43 203.387 208.516 203.464L212.736 207.262C212.894 207.404 213.125 207.431 213.312 207.328L227.5 199.5Z" fill="white"/>
<path d="M73.5 136L58.4292 145.723C58.1937 145.875 57.8792 145.804 57.7323 145.565L54.3636 140.091C54.3031 139.992 54.4298 139.887 54.5156 139.964L58.7355 143.762C58.8938 143.904 59.125 143.931 59.3115 143.828L73.5 136Z" fill="white"/>
<path d="M73.5 168L58.4292 177.723C58.1937 177.875 57.8792 177.804 57.7323 177.565L54.3636 172.091C54.3031 171.992 54.4298 171.887 54.5156 171.964L58.7355 175.762C58.8938 175.904 59.125 175.931 59.3115 175.828L73.5 168Z" fill="white"/>
</svg>
